<?xml version="1.0" encoding="UTF-8"?><svg id="a" xmlns="http://www.w3.org/2000/svg" viewBox="0 0 174 200"><defs><style>.b{fill:none;stroke:#333;stroke-miterlimit:10;stroke-width:10px;}</style></defs><path class="b" d="m49.83,6.34l43.04,24.67v49.33l-43.04,24.67L6.79,80.34V31L49.83,6.34Z"/><path class="b" d="m149.13,6.34l43.04,24.67v49.33l-43.04,24.67-43.04-24.67V31l43.04-24.67Z"/><path class="b" d="m99.42,94.89l43.04,24.67v49.33l-43.04,24.67-43.04-24.67v-49.33l43.04-24.67Z"/><path class="b" d="m198.77,94.89l43.04,24.67v49.33l-43.04,24.67-43.04-24.67v-49.33l43.04-24.67Z"/><path class="b" d="m.06,94.89l43.04,24.67v49.33L.06,193.56l-43.04-24.67v-49.33L.06,94.89Z"/></svg>